<svg width="96" height="96" viewBox="0 0 96 96" fill="none" xmlns="http://www.w3.org/2000/svg">
  <rect width="96" height="96" rx="24" fill="#EFF6FF"/>
  <path d="M30 54C36.0751 54 41 49.0751 41 43C41 36.9249 36.0751 32 30 32C23.9249 32 19 36.9249 19 43C19 49.0751 23.9249 54 30 54Z" fill="#2563EB" fill-opacity="0.18"/>
  <path d="M58.5 26C49.3863 26 42 33.3863 42 42.5C42 51.6137 49.3863 59 58.5 59C67.6137 59 75 51.6137 75 42.5C75 33.3863 67.6137 26 58.5 26ZM58.5 31C64.8513 31 70 36.1487 70 42.5C70 48.8513 64.8513 54 58.5 54C52.1487 54 47 48.8513 47 42.5C47 36.1487 52.1487 31 58.5 31Z" fill="#1D4ED8"/>
  <path d="M42 61C38.6863 61 36 63.6863 36 67C36 70.3137 38.6863 73 42 73H62C65.3137 73 68 70.3137 68 67C68 63.6863 65.3137 61 62 61H42Z" fill="#93C5FD"/>
  <path d="M52 40L60 48L67 41" stroke="#2563EB" stroke-width="5" stroke-linecap="round" stroke-linejoin="round"/>
  <circle cx="30" cy="43" r="6" fill="#60A5FA"/>
</svg>